<?xml version="1.0" encoding="UTF-8"?>
<svg xmlns="http://www.w3.org/2000/svg" xml:space="preserve" width="49.4cm" height="5.6cm" viewBox="-0.4 -0.5 49.4 5.6">

    


    
        <polygon id="fretboard" style="fill: black; stroke: none;" points="16.97056274847714 -0.2525126265847084,48.0 0.19999999999999973,48.0 4.4,16.97056274847714 4.8525126265847085"/>
        <rect id="saddle" style="fill: gray; stroke: none;" x="-0.4" y="-0.5" width="0.4" height="5.6"/>
        <rect id="nut" style="fill: gray; stroke: none;" x="48" y="0.19999999999999973" width="0.4" height="4.2"/>
        <line id="fret_1" style="stroke: gold; stroke-width: 0.2;" x1="45.30596700872129" y1="0.16071201887718534" x2="45.30596700872129" y2="4.439287981122814"/><line id="fret_2" style="stroke: gold; stroke-width: 0.2;" x1="42.76313847073629" y1="0.12362910269823724" x2="42.76313847073629" y2="4.476370897301763"/><line id="fret_3" style="stroke: gold; stroke-width: 0.2;" x1="40.3630279321783" y1="0.0886274906775999" x2="40.3630279321783" y2="4.511372509322399"/><line id="fret_4" style="stroke: gold; stroke-width: 0.2;" x1="38.097625247236785" y1="0.05559036818886964" x2="38.097625247236785" y2="4.54440963181113"/><line id="fret_5" style="stroke: gold; stroke-width: 0.2;" x1="35.95936984504036" y1="0.024407476906838532" x2="35.95936984504036" y2="4.575592523093161"/><line id="fret_6" style="stroke: gold; stroke-width: 0.2;" x1="33.94112549695428" y1="-0.005025253169417043" x2="33.94112549695428" y2="4.605025253169417"/><line id="fret_7" style="stroke: gold; stroke-width: 0.2;" x1="32.03615650008082" y1="-0.03280605104048817" x2="32.03615650008082" y2="4.632806051040488"/><line id="fret_8" style="stroke: gold; stroke-width: 0.2;" x1="30.23810519747696" y1="-0.05902763253679444" x2="30.23810519747696" y2="4.6590276325367945"/><line id="fret_9" style="stroke: gold; stroke-width: 0.2;" x1="28.540970760065306" y1="-0.08377750974904785" x2="28.540970760065306" y2="4.6837775097490475"/><line id="fret_10" style="stroke: gold; stroke-width: 0.2;" x1="26.939089159424952" y1="-0.10713828309171958" x2="26.939089159424952" y2="4.707138283091719"/><line id="fret_11" style="stroke: gold; stroke-width: 0.2;" x1="25.42711426462309" y1="-0.1291879169742467" x2="25.42711426462309" y2="4.729187916974246"/><line id="fret_12" style="stroke: gold; stroke-width: 0.2;" x1="24.0" y1="-0.15000000000000013" x2="24.0" y2="4.75"/><line id="fret_13" style="stroke: gold; stroke-width: 0.2;" x1="22.652983504360645" y1="-0.16964399056140733" x2="22.652983504360645" y2="4.769643990561407"/><line id="fret_14" style="stroke: gold; stroke-width: 0.2;" x1="21.381569235368143" y1="-0.1881854486508816" x2="21.381569235368143" y2="4.788185448650881"/><line id="fret_15" style="stroke: gold; stroke-width: 0.2;" x1="20.18151396608915" y1="-0.20568625466120016" x2="20.18151396608915" y2="4.8056862546612"/><line id="fret_16" style="stroke: gold; stroke-width: 0.2;" x1="19.048812623618392" y1="-0.2222048159055654" x2="19.048812623618392" y2="4.822204815905565"/><line id="fret_17" style="stroke: gold; stroke-width: 0.2;" x1="17.97968492252018" y1="-0.23779626154658073" x2="17.97968492252018" y2="4.837796261546581"/>
    
    <circle id="fret_dot_5" style="fill: white; stroke: black; stroke-width: 0.05;" cx="34.950247670997314" cy="-0.14030888813128936" r="0.15"/><circle id="fret_dot_7" style="fill: white; stroke: black; stroke-width: 0.05;" cx="31.137130848778888" cy="-0.1959168417886413" r="0.15"/><circle id="fret_dot_9" style="fill: white; stroke: black; stroke-width: 0.05;" cx="27.74002995974513" cy="-0.24545789642038382" r="0.15"/><circle id="fret_dot_12" style="fill: white; stroke: black; stroke-width: 0.05;" cx="23.326491752180324" cy="-0.30982199528070364" r="0.15"/>

<!-- background black rectangles for stickers when printing -->


    <line id="string_E0" style="stroke: silver; stroke-width: 0.1;" x1="0" y1="0.0" x2="48" y2="0.6999999999999997"/><line id="string_A1" style="stroke: silver; stroke-width: 0.1;" x1="0" y1="0.9199999999999999" x2="48" y2="1.3399999999999999"/><line id="string_D2" style="stroke: silver; stroke-width: 0.1;" x1="0" y1="1.8399999999999999" x2="48" y2="1.9799999999999998"/><line id="string_G3" style="stroke: silver; stroke-width: 0.1;" x1="0" y1="2.76" x2="48" y2="2.62"/><line id="string_B4" style="stroke: silver; stroke-width: 0.1;" x1="0" y1="3.6799999999999997" x2="48" y2="3.26"/><line id="string_E5" style="stroke: silver; stroke-width: 0.1;" x1="0" y1="4.6" x2="48" y2="3.9"/>


    
        
        <circle id="sticker_E0_0" style="fill: #00bfbf; stroke: black; stroke-width: 0.05;" cx="46.65298350436065" cy="0.6803560094385928" r="0.3"/>
        <rect id="sticker_bar_E0_0" style="fill: black; stroke: none;" rx="0.15" ry="0.15" x="46.45303350436065" y="0.6053560094385928" width="0.3999" height="0.15" transform="rotate(90 46.65298350436065 0.6803560094385928)"/>
    
    
        
        <circle id="sticker_E0_1" style="fill: #ee117f; stroke: black; stroke-width: 0.05;" cx="44.03455273972879" cy="0.6421705607877113" r="0.3"/>
        <rect id="sticker_bar_E0_1" style="fill: black; stroke: none;" rx="0.15" ry="0.15" x="43.83460273972879" y="0.5671705607877113" width="0.3999" height="0.15" transform="rotate(135 44.03455273972879 0.6421705607877113)"/>
    
    
        
        <circle id="sticker_E0_2" style="fill: #40ff40; stroke: black; stroke-width: 0.05;" cx="41.56308320145729" cy="0.6061282966879185" r="0.3"/>
        <rect id="sticker_bar_E0_2" style="fill: black; stroke: none;" rx="0.15" ry="0.15" x="41.36313320145729" y="0.5311282966879185" width="0.3999" height="0.15" transform="rotate(0 41.56308320145729 0.6061282966879185)"/>
    
    
        
        <circle id="sticker_E0_3" style="fill: #8011ee; stroke: black; stroke-width: 0.05;" cx="39.230326589707545" cy="0.5721089294332347" r="0.3"/>
        <rect id="sticker_bar_E0_3" style="fill: black; stroke: none;" rx="0.15" ry="0.15" x="39.030376589707544" y="0.49710892943323465" width="0.3999" height="0.15" transform="rotate(45 39.230326589707545 0.5721089294332347)"/>
    
    
        
        <circle id="sticker_E0_4" style="fill: #bfbf00; stroke: black; stroke-width: 0.05;" cx="37.02849754613857" cy="0.5399989225478539" r="0.3"/>
        <rect id="sticker_bar_E0_4" style="fill: black; stroke: none;" rx="0.15" ry="0.15" x="36.828547546138566" y="0.46499892254785385" width="0.3999" height="0.15" transform="rotate(90 37.02849754613857 0.5399989225478539)"/>
    
    
        
        <circle id="sticker_E0_5" style="fill: #117fee; stroke: black; stroke-width: 0.05;" cx="34.950247670997314" cy="0.5096911118687106" r="0.3"/>
        <rect id="sticker_bar_E0_5" style="fill: black; stroke: none;" rx="0.15" ry="0.15" x="34.75029767099731" y="0.4346911118687106" width="0.3999" height="0.15" transform="rotate(135 34.950247670997314 0.5096911118687106)"/>
    
    
        
        <circle id="sticker_E0_6" style="fill: #ff4040; stroke: black; stroke-width: 0.05;" cx="32.98864099851755" cy="0.4810843478950475" r="0.3"/>
        <rect id="sticker_bar_E0_6" style="fill: black; stroke: none;" rx="0.15" ry="0.15" x="32.78869099851755" y="0.4060843478950475" width="0.3999" height="0.15" transform="rotate(0 32.98864099851755 0.4810843478950475)"/>
    
    
        
        <circle id="sticker_E0_7" style="fill: #11ee80; stroke: black; stroke-width: 0.05;" cx="31.137130848778888" cy="0.4540831582113587" r="0.3"/>
        <rect id="sticker_bar_E0_7" style="fill: black; stroke: none;" rx="0.15" ry="0.15" x="30.937180848778887" y="0.3790831582113587" width="0.3999" height="0.15" transform="rotate(45 31.137130848778888 0.4540831582113587)"/>
    
    
        
        <circle id="sticker_E0_8" style="fill: #bf00bf; stroke: black; stroke-width: 0.05;" cx="29.38953797877113" cy="0.42859742885707885" r="0.3"/>
        <rect id="sticker_bar_E0_8" style="fill: black; stroke: none;" rx="0.15" ry="0.15" x="29.18958797877113" y="0.35359742885707884" width="0.3999" height="0.15" transform="rotate(90 29.38953797877113 0.42859742885707885)"/>
    
    
        
        <circle id="sticker_E0_9" style="fill: #7fee11; stroke: black; stroke-width: 0.05;" cx="27.74002995974513" cy="0.4045421035796162" r="0.3"/>
        <rect id="sticker_bar_E0_9" style="fill: black; stroke: none;" rx="0.15" ry="0.15" x="27.54007995974513" y="0.32954210357961616" width="0.3999" height="0.15" transform="rotate(135 27.74002995974513 0.4045421035796162)"/>
    
    
        
        <circle id="sticker_E0_10" style="fill: #4040ff; stroke: black; stroke-width: 0.05;" cx="26.18310171202402" cy="0.38183689996701675" r="0.3"/>
        <rect id="sticker_bar_E0_10" style="fill: black; stroke: none;" rx="0.15" ry="0.15" x="25.983151712024018" y="0.30683689996701674" width="0.3999" height="0.15" transform="rotate(0 26.18310171202402 0.38183689996701675)"/>
    
    
        
        <circle id="sticker_E0_11" style="fill: #ee8011; stroke: black; stroke-width: 0.05;" cx="24.713557132311543" cy="0.3604060415128765" r="0.3"/>
        <rect id="sticker_bar_E0_11" style="fill: black; stroke: none;" rx="0.15" ry="0.15" x="24.51360713231154" y="0.28540604151287646" width="0.3999" height="0.15" transform="rotate(45 24.713557132311543 0.3604060415128765)"/>
    
    
        
        <circle id="sticker_E0_12" style="fill: #00bfbf; stroke: black; stroke-width: 0.05;" cx="23.326491752180324" cy="0.3401780047192964" r="0.3"/>
        <rect id="sticker_bar_E0_12" style="fill: black; stroke: none;" rx="0.15" ry="0.15" x="23.126541752180323" y="0.26517800471929637" width="0.3999" height="0.15" transform="rotate(90 23.326491752180324 0.3401780047192964)"/>
    
    
        
        <circle id="sticker_E0_13" style="fill: #ee117f; stroke: black; stroke-width: 0.05;" cx="22.017276369864394" cy="0.32108528039385575" r="0.3"/>
        <rect id="sticker_bar_E0_13" style="fill: black; stroke: none;" rx="0.15" ry="0.15" x="21.817326369864393" y="0.24608528039385574" width="0.3999" height="0.15" transform="rotate(135 22.017276369864394 0.32108528039385575)"/>
    
    
        
        <circle id="sticker_E0_14" style="fill: #40ff40; stroke: black; stroke-width: 0.05;" cx="20.781541600728644" cy="0.30306414834395934" r="0.3"/>
        <rect id="sticker_bar_E0_14" style="fill: black; stroke: none;" rx="0.15" ry="0.15" x="20.581591600728643" y="0.22806414834395933" width="0.3999" height="0.15" transform="rotate(0 20.781541600728644 0.30306414834395934)"/>
    
    
        
        <circle id="sticker_E0_15" style="fill: #8011ee; stroke: black; stroke-width: 0.05;" cx="19.615163294853772" cy="0.2860544647166172" r="0.3"/>
        <rect id="sticker_bar_E0_15" style="fill: black; stroke: none;" rx="0.15" ry="0.15" x="19.41521329485377" y="0.2110544647166172" width="0.3999" height="0.15" transform="rotate(45 19.615163294853772 0.2860544647166172)"/>
    
    
        
        <circle id="sticker_E0_16" style="fill: #bfbf00; stroke: black; stroke-width: 0.05;" cx="18.514248773069284" cy="0.26999946127392693" r="0.3"/>
        <rect id="sticker_bar_E0_16" style="fill: black; stroke: none;" rx="0.15" ry="0.15" x="18.314298773069282" y="0.19499946127392692" width="0.3999" height="0.15" transform="rotate(90 18.514248773069284 0.26999946127392693)"/>
    
    
        
        <circle id="sticker_E0_17" style="fill: #117fee; stroke: black; stroke-width: 0.05;" cx="17.475123835498657" cy="0.254845555934355" r="0.3"/>
        <rect id="sticker_bar_E0_17" style="fill: black; stroke: none;" rx="0.15" ry="0.15" x="17.275173835498656" y="0.17984555593435497" width="0.3999" height="0.15" transform="rotate(135 17.475123835498657 0.254845555934355)"/>
    
    
    
        
        <circle id="sticker_E0_nut" style="fill: #ee117f; stroke: black; stroke-width: 0.05;" cx="48.2" cy="0.6999999999999997" r="0.3"/>
        <rect id="sticker_bar_E0_nut" style="fill: black; stroke: none;" rx="0.15" ry="0.15" x="48.00005" y="0.6249999999999998" width="0.3999" height="0.15" transform="rotate(135 48.2 0.6999999999999997)"/>
    
    

    
        
        <circle id="sticker_A1_0" style="fill: #117fee; stroke: black; stroke-width: 0.05;" cx="46.65298350436065" cy="1.3282136056631555" r="0.3"/>
        <rect id="sticker_bar_A1_0" style="fill: black; stroke: none;" rx="0.15" ry="0.15" x="46.45303350436065" y="1.2532136056631555" width="0.3999" height="0.15" transform="rotate(135 46.65298350436065 1.3282136056631555)"/>
    
    
        
        <circle id="sticker_A1_1" style="fill: #ff4040; stroke: black; stroke-width: 0.05;" cx="44.03455273972879" cy="1.3053023364726268" r="0.3"/>
        <rect id="sticker_bar_A1_1" style="fill: black; stroke: none;" rx="0.15" ry="0.15" x="43.83460273972879" y="1.2303023364726269" width="0.3999" height="0.15" transform="rotate(0 44.03455273972879 1.3053023364726268)"/>
    
    
        
        <circle id="sticker_A1_2" style="fill: #11ee80; stroke: black; stroke-width: 0.05;" cx="41.56308320145729" cy="1.283676978012751" r="0.3"/>
        <rect id="sticker_bar_A1_2" style="fill: black; stroke: none;" rx="0.15" ry="0.15" x="41.36313320145729" y="1.208676978012751" width="0.3999" height="0.15" transform="rotate(45 41.56308320145729 1.283676978012751)"/>
    
    
        
        <circle id="sticker_A1_3" style="fill: #bf00bf; stroke: black; stroke-width: 0.05;" cx="39.230326589707545" cy="1.2632653576599409" r="0.3"/>
        <rect id="sticker_bar_A1_3" style="fill: black; stroke: none;" rx="0.15" ry="0.15" x="39.030376589707544" y="1.188265357659941" width="0.3999" height="0.15" transform="rotate(90 39.230326589707545 1.2632653576599409)"/>
    
    
        
        <circle id="sticker_A1_4" style="fill: #7fee11; stroke: black; stroke-width: 0.05;" cx="37.02849754613857" cy="1.2439993535287122" r="0.3"/>
        <rect id="sticker_bar_A1_4" style="fill: black; stroke: none;" rx="0.15" ry="0.15" x="36.828547546138566" y="1.1689993535287122" width="0.3999" height="0.15" transform="rotate(135 37.02849754613857 1.2439993535287122)"/>
    
    
        
        <circle id="sticker_A1_5" style="fill: #4040ff; stroke: black; stroke-width: 0.05;" cx="34.950247670997314" cy="1.2258146671212264" r="0.3"/>
        <rect id="sticker_bar_A1_5" style="fill: black; stroke: none;" rx="0.15" ry="0.15" x="34.75029767099731" y="1.1508146671212265" width="0.3999" height="0.15" transform="rotate(0 34.950247670997314 1.2258146671212264)"/>
    
    
        
        <circle id="sticker_A1_6" style="fill: #ee8011; stroke: black; stroke-width: 0.05;" cx="32.98864099851755" cy="1.2086506087370283" r="0.3"/>
        <rect id="sticker_bar_A1_6" style="fill: black; stroke: none;" rx="0.15" ry="0.15" x="32.78869099851755" y="1.1336506087370284" width="0.3999" height="0.15" transform="rotate(45 32.98864099851755 1.2086506087370283)"/>
    
    
        
        <circle id="sticker_A1_7" style="fill: #00bfbf; stroke: black; stroke-width: 0.05;" cx="31.137130848778888" cy="1.1924498949268152" r="0.3"/>
        <rect id="sticker_bar_A1_7" style="fill: black; stroke: none;" rx="0.15" ry="0.15" x="30.937180848778887" y="1.1174498949268152" width="0.3999" height="0.15" transform="rotate(90 31.137130848778888 1.1924498949268152)"/>
    
    
        
        <circle id="sticker_A1_8" style="fill: #ee117f; stroke: black; stroke-width: 0.05;" cx="29.38953797877113" cy="1.1771584573142473" r="0.3"/>
        <rect id="sticker_bar_A1_8" style="fill: black; stroke: none;" rx="0.15" ry="0.15" x="29.18958797877113" y="1.1021584573142473" width="0.3999" height="0.15" transform="rotate(135 29.38953797877113 1.1771584573142473)"/>
    
    
        
        <circle id="sticker_A1_9" style="fill: #40ff40; stroke: black; stroke-width: 0.05;" cx="27.74002995974513" cy="1.1627252621477697" r="0.3"/>
        <rect id="sticker_bar_A1_9" style="fill: black; stroke: none;" rx="0.15" ry="0.15" x="27.54007995974513" y="1.0877252621477698" width="0.3999" height="0.15" transform="rotate(0 27.74002995974513 1.1627252621477697)"/>
    
    
        
        <circle id="sticker_A1_10" style="fill: #8011ee; stroke: black; stroke-width: 0.05;" cx="26.18310171202402" cy="1.14910213998021" r="0.3"/>
        <rect id="sticker_bar_A1_10" style="fill: black; stroke: none;" rx="0.15" ry="0.15" x="25.983151712024018" y="1.07410213998021" width="0.3999" height="0.15" transform="rotate(45 26.18310171202402 1.14910213998021)"/>
    
    
        
        <circle id="sticker_A1_11" style="fill: #bfbf00; stroke: black; stroke-width: 0.05;" cx="24.713557132311543" cy="1.136243624907726" r="0.3"/>
        <rect id="sticker_bar_A1_11" style="fill: black; stroke: none;" rx="0.15" ry="0.15" x="24.51360713231154" y="1.061243624907726" width="0.3999" height="0.15" transform="rotate(90 24.713557132311543 1.136243624907726)"/>
    
    
        
        <circle id="sticker_A1_12" style="fill: #117fee; stroke: black; stroke-width: 0.05;" cx="23.326491752180324" cy="1.1241068028315777" r="0.3"/>
        <rect id="sticker_bar_A1_12" style="fill: black; stroke: none;" rx="0.15" ry="0.15" x="23.126541752180323" y="1.0491068028315778" width="0.3999" height="0.15" transform="rotate(135 23.326491752180324 1.1241068028315777)"/>
    
    
        
        <circle id="sticker_A1_13" style="fill: #ff4040; stroke: black; stroke-width: 0.05;" cx="22.017276369864394" cy="1.1126511682363134" r="0.3"/>
        <rect id="sticker_bar_A1_13" style="fill: black; stroke: none;" rx="0.15" ry="0.15" x="21.817326369864393" y="1.0376511682363134" width="0.3999" height="0.15" transform="rotate(0 22.017276369864394 1.1126511682363134)"/>
    
    
        
        <circle id="sticker_A1_14" style="fill: #11ee80; stroke: black; stroke-width: 0.05;" cx="20.781541600728644" cy="1.1018384890063755" r="0.3"/>
        <rect id="sticker_bar_A1_14" style="fill: black; stroke: none;" rx="0.15" ry="0.15" x="20.581591600728643" y="1.0268384890063755" width="0.3999" height="0.15" transform="rotate(45 20.781541600728644 1.1018384890063755)"/>
    
    
        
        <circle id="sticker_A1_15" style="fill: #bf00bf; stroke: black; stroke-width: 0.05;" cx="19.615163294853772" cy="1.0916326788299702" r="0.3"/>
        <rect id="sticker_bar_A1_15" style="fill: black; stroke: none;" rx="0.15" ry="0.15" x="19.41521329485377" y="1.0166326788299702" width="0.3999" height="0.15" transform="rotate(90 19.615163294853772 1.0916326788299702)"/>
    
    
        
        <circle id="sticker_A1_16" style="fill: #7fee11; stroke: black; stroke-width: 0.05;" cx="18.514248773069284" cy="1.081999676764356" r="0.3"/>
        <rect id="sticker_bar_A1_16" style="fill: black; stroke: none;" rx="0.15" ry="0.15" x="18.314298773069282" y="1.006999676764356" width="0.3999" height="0.15" transform="rotate(135 18.514248773069284 1.081999676764356)"/>
    
    
        
        <circle id="sticker_A1_17" style="fill: #4040ff; stroke: black; stroke-width: 0.05;" cx="17.475123835498657" cy="1.072907333560613" r="0.3"/>
        <rect id="sticker_bar_A1_17" style="fill: black; stroke: none;" rx="0.15" ry="0.15" x="17.275173835498656" y="0.997907333560613" width="0.3999" height="0.15" transform="rotate(0 17.475123835498657 1.072907333560613)"/>
    
    
    
        
        <circle id="sticker_A1_nut" style="fill: #ff4040; stroke: black; stroke-width: 0.05;" cx="48.2" cy="1.3399999999999999" r="0.3"/>
        <rect id="sticker_bar_A1_nut" style="fill: black; stroke: none;" rx="0.15" ry="0.15" x="48.00005" y="1.265" width="0.3999" height="0.15" transform="rotate(0 48.2 1.3399999999999999)"/>
    
    

    
        
        <circle id="sticker_D2_0" style="fill: #4040ff; stroke: black; stroke-width: 0.05;" cx="46.65298350436065" cy="1.9760712018877185" r="0.3"/>
        <rect id="sticker_bar_D2_0" style="fill: black; stroke: none;" rx="0.15" ry="0.15" x="46.45303350436065" y="1.9010712018877185" width="0.3999" height="0.15" transform="rotate(0 46.65298350436065 1.9760712018877185)"/>
    
    
        
        <circle id="sticker_D2_1" style="fill: #ee8011; stroke: black; stroke-width: 0.05;" cx="44.03455273972879" cy="1.9684341121575422" r="0.3"/>
        <rect id="sticker_bar_D2_1" style="fill: black; stroke: none;" rx="0.15" ry="0.15" x="43.83460273972879" y="1.8934341121575422" width="0.3999" height="0.15" transform="rotate(45 44.03455273972879 1.9684341121575422)"/>
    
    
        
        <circle id="sticker_D2_2" style="fill: #00bfbf; stroke: black; stroke-width: 0.05;" cx="41.56308320145729" cy="1.9612256593375836" r="0.3"/>
        <rect id="sticker_bar_D2_2" style="fill: black; stroke: none;" rx="0.15" ry="0.15" x="41.36313320145729" y="1.8862256593375837" width="0.3999" height="0.15" transform="rotate(90 41.56308320145729 1.9612256593375836)"/>
    
    
        
        <circle id="sticker_D2_3" style="fill: #ee117f; stroke: black; stroke-width: 0.05;" cx="39.230326589707545" cy="1.9544217858866468" r="0.3"/>
        <rect id="sticker_bar_D2_3" style="fill: black; stroke: none;" rx="0.15" ry="0.15" x="39.030376589707544" y="1.8794217858866469" width="0.3999" height="0.15" transform="rotate(135 39.230326589707545 1.9544217858866468)"/>
    
    
        
        <circle id="sticker_D2_4" style="fill: #40ff40; stroke: black; stroke-width: 0.05;" cx="37.02849754613857" cy="1.9479997845095707" r="0.3"/>
        <rect id="sticker_bar_D2_4" style="fill: black; stroke: none;" rx="0.15" ry="0.15" x="36.828547546138566" y="1.8729997845095707" width="0.3999" height="0.15" transform="rotate(0 37.02849754613857 1.9479997845095707)"/>
    
    
        
        <circle id="sticker_D2_5" style="fill: #8011ee; stroke: black; stroke-width: 0.05;" cx="34.950247670997314" cy="1.941938222373742" r="0.3"/>
        <rect id="sticker_bar_D2_5" style="fill: black; stroke: none;" rx="0.15" ry="0.15" x="34.75029767099731" y="1.866938222373742" width="0.3999" height="0.15" transform="rotate(45 34.950247670997314 1.941938222373742)"/>
    
    
        
        <circle id="sticker_D2_6" style="fill: #bfbf00; stroke: black; stroke-width: 0.05;" cx="32.98864099851755" cy="1.9362168695790094" r="0.3"/>
        <rect id="sticker_bar_D2_6" style="fill: black; stroke: none;" rx="0.15" ry="0.15" x="32.78869099851755" y="1.8612168695790094" width="0.3999" height="0.15" transform="rotate(90 32.98864099851755 1.9362168695790094)"/>
    
    
        
        <circle id="sticker_D2_7" style="fill: #117fee; stroke: black; stroke-width: 0.05;" cx="31.137130848778888" cy="1.9308166316422717" r="0.3"/>
        <rect id="sticker_bar_D2_7" style="fill: black; stroke: none;" rx="0.15" ry="0.15" x="30.937180848778887" y="1.8558166316422717" width="0.3999" height="0.15" transform="rotate(135 31.137130848778888 1.9308166316422717)"/>
    
    
        
        <circle id="sticker_D2_8" style="fill: #ff4040; stroke: black; stroke-width: 0.05;" cx="29.38953797877113" cy="1.9257194857714157" r="0.3"/>
        <rect id="sticker_bar_D2_8" style="fill: black; stroke: none;" rx="0.15" ry="0.15" x="29.18958797877113" y="1.8507194857714158" width="0.3999" height="0.15" transform="rotate(0 29.38953797877113 1.9257194857714157)"/>
    
    
        
        <circle id="sticker_D2_9" style="fill: #11ee80; stroke: black; stroke-width: 0.05;" cx="27.74002995974513" cy="1.920908420715923" r="0.3"/>
        <rect id="sticker_bar_D2_9" style="fill: black; stroke: none;" rx="0.15" ry="0.15" x="27.54007995974513" y="1.845908420715923" width="0.3999" height="0.15" transform="rotate(45 27.74002995974513 1.920908420715923)"/>
    
    
        
        <circle id="sticker_D2_10" style="fill: #bf00bf; stroke: black; stroke-width: 0.05;" cx="26.18310171202402" cy="1.9163673799934031" r="0.3"/>
        <rect id="sticker_bar_D2_10" style="fill: black; stroke: none;" rx="0.15" ry="0.15" x="25.983151712024018" y="1.8413673799934032" width="0.3999" height="0.15" transform="rotate(90 26.18310171202402 1.9163673799934031)"/>
    
    
        
        <circle id="sticker_D2_11" style="fill: #7fee11; stroke: black; stroke-width: 0.05;" cx="24.713557132311543" cy="1.912081208302575" r="0.3"/>
        <rect id="sticker_bar_D2_11" style="fill: black; stroke: none;" rx="0.15" ry="0.15" x="24.51360713231154" y="1.8370812083025752" width="0.3999" height="0.15" transform="rotate(135 24.713557132311543 1.912081208302575)"/>
    
    
        
        <circle id="sticker_D2_12" style="fill: #4040ff; stroke: black; stroke-width: 0.05;" cx="23.326491752180324" cy="1.908035600943859" r="0.3"/>
        <rect id="sticker_bar_D2_12" style="fill: black; stroke: none;" rx="0.15" ry="0.15" x="23.126541752180323" y="1.833035600943859" width="0.3999" height="0.15" transform="rotate(0 23.326491752180324 1.908035600943859)"/>
    
    
        
        <circle id="sticker_D2_13" style="fill: #ee8011; stroke: black; stroke-width: 0.05;" cx="22.017276369864394" cy="1.904217056078771" r="0.3"/>
        <rect id="sticker_bar_D2_13" style="fill: black; stroke: none;" rx="0.15" ry="0.15" x="21.817326369864393" y="1.829217056078771" width="0.3999" height="0.15" transform="rotate(45 22.017276369864394 1.904217056078771)"/>
    
    
        
        <circle id="sticker_D2_14" style="fill: #00bfbf; stroke: black; stroke-width: 0.05;" cx="20.781541600728644" cy="1.9006128296687916" r="0.3"/>
        <rect id="sticker_bar_D2_14" style="fill: black; stroke: none;" rx="0.15" ry="0.15" x="20.581591600728643" y="1.8256128296687917" width="0.3999" height="0.15" transform="rotate(90 20.781541600728644 1.9006128296687916)"/>
    
    
        
        <circle id="sticker_D2_15" style="fill: #ee117f; stroke: black; stroke-width: 0.05;" cx="19.615163294853772" cy="1.8972108929433233" r="0.3"/>
        <rect id="sticker_bar_D2_15" style="fill: black; stroke: none;" rx="0.15" ry="0.15" x="19.41521329485377" y="1.8222108929433234" width="0.3999" height="0.15" transform="rotate(135 19.615163294853772 1.8972108929433233)"/>
    
    
        
        <circle id="sticker_D2_16" style="fill: #40ff40; stroke: black; stroke-width: 0.05;" cx="18.514248773069284" cy="1.8939998922547852" r="0.3"/>
        <rect id="sticker_bar_D2_16" style="fill: black; stroke: none;" rx="0.15" ry="0.15" x="18.314298773069282" y="1.8189998922547852" width="0.3999" height="0.15" transform="rotate(0 18.514248773069284 1.8939998922547852)"/>
    
    
        
        <circle id="sticker_D2_17" style="fill: #8011ee; stroke: black; stroke-width: 0.05;" cx="17.475123835498657" cy="1.890969111186871" r="0.3"/>
        <rect id="sticker_bar_D2_17" style="fill: black; stroke: none;" rx="0.15" ry="0.15" x="17.275173835498656" y="1.815969111186871" width="0.3999" height="0.15" transform="rotate(45 17.475123835498657 1.890969111186871)"/>
    
    
    
        
        <circle id="sticker_D2_nut" style="fill: #ee8011; stroke: black; stroke-width: 0.05;" cx="48.2" cy="1.9799999999999998" r="0.3"/>
        <rect id="sticker_bar_D2_nut" style="fill: black; stroke: none;" rx="0.15" ry="0.15" x="48.00005" y="1.9049999999999998" width="0.3999" height="0.15" transform="rotate(45 48.2 1.9799999999999998)"/>
    
    

    
        
        <circle id="sticker_G3_0" style="fill: #8011ee; stroke: black; stroke-width: 0.05;" cx="46.65298350436065" cy="2.6239287981122814" r="0.3"/>
        <rect id="sticker_bar_G3_0" style="fill: black; stroke: none;" rx="0.15" ry="0.15" x="46.45303350436065" y="2.5489287981122812" width="0.3999" height="0.15" transform="rotate(45 46.65298350436065 2.6239287981122814)"/>
    
    
        
        <circle id="sticker_G3_1" style="fill: #bfbf00; stroke: black; stroke-width: 0.05;" cx="44.03455273972879" cy="2.6315658878424575" r="0.3"/>
        <rect id="sticker_bar_G3_1" style="fill: black; stroke: none;" rx="0.15" ry="0.15" x="43.83460273972879" y="2.5565658878424573" width="0.3999" height="0.15" transform="rotate(90 44.03455273972879 2.6315658878424575)"/>
    
    
        
        <circle id="sticker_G3_2" style="fill: #117fee; stroke: black; stroke-width: 0.05;" cx="41.56308320145729" cy="2.6387743406624162" r="0.3"/>
        <rect id="sticker_bar_G3_2" style="fill: black; stroke: none;" rx="0.15" ry="0.15" x="41.36313320145729" y="2.563774340662416" width="0.3999" height="0.15" transform="rotate(135 41.56308320145729 2.6387743406624162)"/>
    
    
        
        <circle id="sticker_G3_3" style="fill: #ff4040; stroke: black; stroke-width: 0.05;" cx="39.230326589707545" cy="2.6455782141133524" r="0.3"/>
        <rect id="sticker_bar_G3_3" style="fill: black; stroke: none;" rx="0.15" ry="0.15" x="39.030376589707544" y="2.570578214113352" width="0.3999" height="0.15" transform="rotate(0 39.230326589707545 2.6455782141133524)"/>
    
    
        
        <circle id="sticker_G3_4" style="fill: #11ee80; stroke: black; stroke-width: 0.05;" cx="37.02849754613857" cy="2.652000215490429" r="0.3"/>
        <rect id="sticker_bar_G3_4" style="fill: black; stroke: none;" rx="0.15" ry="0.15" x="36.828547546138566" y="2.577000215490429" width="0.3999" height="0.15" transform="rotate(45 37.02849754613857 2.652000215490429)"/>
    
    
        
        <circle id="sticker_G3_5" style="fill: #bf00bf; stroke: black; stroke-width: 0.05;" cx="34.950247670997314" cy="2.6580617776262576" r="0.3"/>
        <rect id="sticker_bar_G3_5" style="fill: black; stroke: none;" rx="0.15" ry="0.15" x="34.75029767099731" y="2.5830617776262574" width="0.3999" height="0.15" transform="rotate(90 34.950247670997314 2.6580617776262576)"/>
    
    
        
        <circle id="sticker_G3_6" style="fill: #7fee11; stroke: black; stroke-width: 0.05;" cx="32.98864099851755" cy="2.6637831304209905" r="0.3"/>
        <rect id="sticker_bar_G3_6" style="fill: black; stroke: none;" rx="0.15" ry="0.15" x="32.78869099851755" y="2.5887831304209903" width="0.3999" height="0.15" transform="rotate(135 32.98864099851755 2.6637831304209905)"/>
    
    
        
        <circle id="sticker_G3_7" style="fill: #4040ff; stroke: black; stroke-width: 0.05;" cx="31.137130848778888" cy="2.6691833683577277" r="0.3"/>
        <rect id="sticker_bar_G3_7" style="fill: black; stroke: none;" rx="0.15" ry="0.15" x="30.937180848778887" y="2.5941833683577276" width="0.3999" height="0.15" transform="rotate(0 31.137130848778888 2.6691833683577277)"/>
    
    
        
        <circle id="sticker_G3_8" style="fill: #ee8011; stroke: black; stroke-width: 0.05;" cx="29.38953797877113" cy="2.6742805142285837" r="0.3"/>
        <rect id="sticker_bar_G3_8" style="fill: black; stroke: none;" rx="0.15" ry="0.15" x="29.18958797877113" y="2.5992805142285835" width="0.3999" height="0.15" transform="rotate(45 29.38953797877113 2.6742805142285837)"/>
    
    
        
        <circle id="sticker_G3_9" style="fill: #00bfbf; stroke: black; stroke-width: 0.05;" cx="27.74002995974513" cy="2.6790915792840764" r="0.3"/>
        <rect id="sticker_bar_G3_9" style="fill: black; stroke: none;" rx="0.15" ry="0.15" x="27.54007995974513" y="2.604091579284076" width="0.3999" height="0.15" transform="rotate(90 27.74002995974513 2.6790915792840764)"/>
    
    
        
        <circle id="sticker_G3_10" style="fill: #ee117f; stroke: black; stroke-width: 0.05;" cx="26.18310171202402" cy="2.6836326200065965" r="0.3"/>
        <rect id="sticker_bar_G3_10" style="fill: black; stroke: none;" rx="0.15" ry="0.15" x="25.983151712024018" y="2.6086326200065963" width="0.3999" height="0.15" transform="rotate(135 26.18310171202402 2.6836326200065965)"/>
    
    
        
        <circle id="sticker_G3_11" style="fill: #40ff40; stroke: black; stroke-width: 0.05;" cx="24.713557132311543" cy="2.6879187916974248" r="0.3"/>
        <rect id="sticker_bar_G3_11" style="fill: black; stroke: none;" rx="0.15" ry="0.15" x="24.51360713231154" y="2.6129187916974246" width="0.3999" height="0.15" transform="rotate(0 24.713557132311543 2.6879187916974248)"/>
    
    
        
        <circle id="sticker_G3_12" style="fill: #8011ee; stroke: black; stroke-width: 0.05;" cx="23.326491752180324" cy="2.69196439905614" r="0.3"/>
        <rect id="sticker_bar_G3_12" style="fill: black; stroke: none;" rx="0.15" ry="0.15" x="23.126541752180323" y="2.61696439905614" width="0.3999" height="0.15" transform="rotate(45 23.326491752180324 2.69196439905614)"/>
    
    
        
        <circle id="sticker_G3_13" style="fill: #bfbf00; stroke: black; stroke-width: 0.05;" cx="22.017276369864394" cy="2.6957829439212286" r="0.3"/>
        <rect id="sticker_bar_G3_13" style="fill: black; stroke: none;" rx="0.15" ry="0.15" x="21.817326369864393" y="2.6207829439212285" width="0.3999" height="0.15" transform="rotate(90 22.017276369864394 2.6957829439212286)"/>
    
    
        
        <circle id="sticker_G3_14" style="fill: #117fee; stroke: black; stroke-width: 0.05;" cx="20.781541600728644" cy="2.699387170331208" r="0.3"/>
        <rect id="sticker_bar_G3_14" style="fill: black; stroke: none;" rx="0.15" ry="0.15" x="20.581591600728643" y="2.624387170331208" width="0.3999" height="0.15" transform="rotate(135 20.781541600728644 2.699387170331208)"/>
    
    
        
        <circle id="sticker_G3_15" style="fill: #ff4040; stroke: black; stroke-width: 0.05;" cx="19.615163294853772" cy="2.7027891070566765" r="0.3"/>
        <rect id="sticker_bar_G3_15" style="fill: black; stroke: none;" rx="0.15" ry="0.15" x="19.41521329485377" y="2.6277891070566763" width="0.3999" height="0.15" transform="rotate(0 19.615163294853772 2.7027891070566765)"/>
    
    
        
        <circle id="sticker_G3_16" style="fill: #11ee80; stroke: black; stroke-width: 0.05;" cx="18.514248773069284" cy="2.7060001077452145" r="0.3"/>
        <rect id="sticker_bar_G3_16" style="fill: black; stroke: none;" rx="0.15" ry="0.15" x="18.314298773069282" y="2.6310001077452143" width="0.3999" height="0.15" transform="rotate(45 18.514248773069284 2.7060001077452145)"/>
    
    
        
        <circle id="sticker_G3_17" style="fill: #bf00bf; stroke: black; stroke-width: 0.05;" cx="17.475123835498657" cy="2.7090308888131287" r="0.3"/>
        <rect id="sticker_bar_G3_17" style="fill: black; stroke: none;" rx="0.15" ry="0.15" x="17.275173835498656" y="2.6340308888131285" width="0.3999" height="0.15" transform="rotate(90 17.475123835498657 2.7090308888131287)"/>
    
    
    
        
        <circle id="sticker_G3_nut" style="fill: #bfbf00; stroke: black; stroke-width: 0.05;" cx="48.2" cy="2.62" r="0.3"/>
        <rect id="sticker_bar_G3_nut" style="fill: black; stroke: none;" rx="0.15" ry="0.15" x="48.00005" y="2.545" width="0.3999" height="0.15" transform="rotate(90 48.2 2.62)"/>
    
    

    
        
        <circle id="sticker_B4_0" style="fill: #11ee80; stroke: black; stroke-width: 0.05;" cx="46.65298350436065" cy="3.271786394336844" r="0.3"/>
        <rect id="sticker_bar_B4_0" style="fill: black; stroke: none;" rx="0.15" ry="0.15" x="46.45303350436065" y="3.196786394336844" width="0.3999" height="0.15" transform="rotate(45 46.65298350436065 3.271786394336844)"/>
    
    
        
        <circle id="sticker_B4_1" style="fill: #bf00bf; stroke: black; stroke-width: 0.05;" cx="44.03455273972879" cy="3.294697663527373" r="0.3"/>
        <rect id="sticker_bar_B4_1" style="fill: black; stroke: none;" rx="0.15" ry="0.15" x="43.83460273972879" y="3.2196976635273726" width="0.3999" height="0.15" transform="rotate(90 44.03455273972879 3.294697663527373)"/>
    
    
        
        <circle id="sticker_B4_2" style="fill: #7fee11; stroke: black; stroke-width: 0.05;" cx="41.56308320145729" cy="3.316323021987249" r="0.3"/>
        <rect id="sticker_bar_B4_2" style="fill: black; stroke: none;" rx="0.15" ry="0.15" x="41.36313320145729" y="3.241323021987249" width="0.3999" height="0.15" transform="rotate(135 41.56308320145729 3.316323021987249)"/>
    
    
        
        <circle id="sticker_B4_3" style="fill: #4040ff; stroke: black; stroke-width: 0.05;" cx="39.230326589707545" cy="3.3367346423400592" r="0.3"/>
        <rect id="sticker_bar_B4_3" style="fill: black; stroke: none;" rx="0.15" ry="0.15" x="39.030376589707544" y="3.261734642340059" width="0.3999" height="0.15" transform="rotate(0 39.230326589707545 3.3367346423400592)"/>
    
    
        
        <circle id="sticker_B4_4" style="fill: #ee8011; stroke: black; stroke-width: 0.05;" cx="37.02849754613857" cy="3.3560006464712875" r="0.3"/>
        <rect id="sticker_bar_B4_4" style="fill: black; stroke: none;" rx="0.15" ry="0.15" x="36.828547546138566" y="3.2810006464712873" width="0.3999" height="0.15" transform="rotate(45 37.02849754613857 3.3560006464712875)"/>
    
    
        
        <circle id="sticker_B4_5" style="fill: #00bfbf; stroke: black; stroke-width: 0.05;" cx="34.950247670997314" cy="3.374185332878773" r="0.3"/>
        <rect id="sticker_bar_B4_5" style="fill: black; stroke: none;" rx="0.15" ry="0.15" x="34.75029767099731" y="3.299185332878773" width="0.3999" height="0.15" transform="rotate(90 34.950247670997314 3.374185332878773)"/>
    
    
        
        <circle id="sticker_B4_6" style="fill: #ee117f; stroke: black; stroke-width: 0.05;" cx="32.98864099851755" cy="3.3913493912629713" r="0.3"/>
        <rect id="sticker_bar_B4_6" style="fill: black; stroke: none;" rx="0.15" ry="0.15" x="32.78869099851755" y="3.316349391262971" width="0.3999" height="0.15" transform="rotate(135 32.98864099851755 3.3913493912629713)"/>
    
    
        
        <circle id="sticker_B4_7" style="fill: #40ff40; stroke: black; stroke-width: 0.05;" cx="31.137130848778888" cy="3.4075501050731845" r="0.3"/>
        <rect id="sticker_bar_B4_7" style="fill: black; stroke: none;" rx="0.15" ry="0.15" x="30.937180848778887" y="3.3325501050731843" width="0.3999" height="0.15" transform="rotate(0 31.137130848778888 3.4075501050731845)"/>
    
    
        
        <circle id="sticker_B4_8" style="fill: #8011ee; stroke: black; stroke-width: 0.05;" cx="29.38953797877113" cy="3.4228415426857524" r="0.3"/>
        <rect id="sticker_bar_B4_8" style="fill: black; stroke: none;" rx="0.15" ry="0.15" x="29.18958797877113" y="3.347841542685752" width="0.3999" height="0.15" transform="rotate(45 29.38953797877113 3.4228415426857524)"/>
    
    
        
        <circle id="sticker_B4_9" style="fill: #bfbf00; stroke: black; stroke-width: 0.05;" cx="27.74002995974513" cy="3.43727473785223" r="0.3"/>
        <rect id="sticker_bar_B4_9" style="fill: black; stroke: none;" rx="0.15" ry="0.15" x="27.54007995974513" y="3.3622747378522297" width="0.3999" height="0.15" transform="rotate(90 27.74002995974513 3.43727473785223)"/>
    
    
        
        <circle id="sticker_B4_10" style="fill: #117fee; stroke: black; stroke-width: 0.05;" cx="26.18310171202402" cy="3.4508978600197895" r="0.3"/>
        <rect id="sticker_bar_B4_10" style="fill: black; stroke: none;" rx="0.15" ry="0.15" x="25.983151712024018" y="3.3758978600197893" width="0.3999" height="0.15" transform="rotate(135 26.18310171202402 3.4508978600197895)"/>
    
    
        
        <circle id="sticker_B4_11" style="fill: #ff4040; stroke: black; stroke-width: 0.05;" cx="24.713557132311543" cy="3.4637563750922737" r="0.3"/>
        <rect id="sticker_bar_B4_11" style="fill: black; stroke: none;" rx="0.15" ry="0.15" x="24.51360713231154" y="3.3887563750922736" width="0.3999" height="0.15" transform="rotate(0 24.713557132311543 3.4637563750922737)"/>
    
    
        
        <circle id="sticker_B4_12" style="fill: #11ee80; stroke: black; stroke-width: 0.05;" cx="23.326491752180324" cy="3.4758931971684217" r="0.3"/>
        <rect id="sticker_bar_B4_12" style="fill: black; stroke: none;" rx="0.15" ry="0.15" x="23.126541752180323" y="3.4008931971684215" width="0.3999" height="0.15" transform="rotate(45 23.326491752180324 3.4758931971684217)"/>
    
    
        
        <circle id="sticker_B4_13" style="fill: #bf00bf; stroke: black; stroke-width: 0.05;" cx="22.017276369864394" cy="3.4873488317636863" r="0.3"/>
        <rect id="sticker_bar_B4_13" style="fill: black; stroke: none;" rx="0.15" ry="0.15" x="21.817326369864393" y="3.412348831763686" width="0.3999" height="0.15" transform="rotate(90 22.017276369864394 3.4873488317636863)"/>
    
    
        
        <circle id="sticker_B4_14" style="fill: #7fee11; stroke: black; stroke-width: 0.05;" cx="20.781541600728644" cy="3.498161510993624" r="0.3"/>
        <rect id="sticker_bar_B4_14" style="fill: black; stroke: none;" rx="0.15" ry="0.15" x="20.581591600728643" y="3.4231615109936238" width="0.3999" height="0.15" transform="rotate(135 20.781541600728644 3.498161510993624)"/>
    
    
        
        <circle id="sticker_B4_15" style="fill: #4040ff; stroke: black; stroke-width: 0.05;" cx="19.615163294853772" cy="3.5083673211700295" r="0.3"/>
        <rect id="sticker_bar_B4_15" style="fill: black; stroke: none;" rx="0.15" ry="0.15" x="19.41521329485377" y="3.4333673211700293" width="0.3999" height="0.15" transform="rotate(0 19.615163294853772 3.5083673211700295)"/>
    
    
        
        <circle id="sticker_B4_16" style="fill: #ee8011; stroke: black; stroke-width: 0.05;" cx="18.514248773069284" cy="3.5180003232356434" r="0.3"/>
        <rect id="sticker_bar_B4_16" style="fill: black; stroke: none;" rx="0.15" ry="0.15" x="18.314298773069282" y="3.443000323235643" width="0.3999" height="0.15" transform="rotate(45 18.514248773069284 3.5180003232356434)"/>
    
    
        
        <circle id="sticker_B4_17" style="fill: #00bfbf; stroke: black; stroke-width: 0.05;" cx="17.475123835498657" cy="3.527092666439387" r="0.3"/>
        <rect id="sticker_bar_B4_17" style="fill: black; stroke: none;" rx="0.15" ry="0.15" x="17.275173835498656" y="3.4520926664393867" width="0.3999" height="0.15" transform="rotate(90 17.475123835498657 3.527092666439387)"/>
    
    
    
        
        <circle id="sticker_B4_nut" style="fill: #bf00bf; stroke: black; stroke-width: 0.05;" cx="48.2" cy="3.26" r="0.3"/>
        <rect id="sticker_bar_B4_nut" style="fill: black; stroke: none;" rx="0.15" ry="0.15" x="48.00005" y="3.1849999999999996" width="0.3999" height="0.15" transform="rotate(90 48.2 3.26)"/>
    
    

    
        
        <circle id="sticker_E5_0" style="fill: #00bfbf; stroke: black; stroke-width: 0.05;" cx="46.65298350436065" cy="3.919643990561407" r="0.3"/>
        <rect id="sticker_bar_E5_0" style="fill: black; stroke: none;" rx="0.15" ry="0.15" x="46.45303350436065" y="3.8446439905614067" width="0.3999" height="0.15" transform="rotate(90 46.65298350436065 3.919643990561407)"/>
    
    
        
        <circle id="sticker_E5_1" style="fill: #ee117f; stroke: black; stroke-width: 0.05;" cx="44.03455273972879" cy="3.957829439212288" r="0.3"/>
        <rect id="sticker_bar_E5_1" style="fill: black; stroke: none;" rx="0.15" ry="0.15" x="43.83460273972879" y="3.882829439212288" width="0.3999" height="0.15" transform="rotate(135 44.03455273972879 3.957829439212288)"/>
    
    
        
        <circle id="sticker_E5_2" style="fill: #40ff40; stroke: black; stroke-width: 0.05;" cx="41.56308320145729" cy="3.993871703312081" r="0.3"/>
        <rect id="sticker_bar_E5_2" style="fill: black; stroke: none;" rx="0.15" ry="0.15" x="41.36313320145729" y="3.918871703312081" width="0.3999" height="0.15" transform="rotate(0 41.56308320145729 3.993871703312081)"/>
    
    
        
        <circle id="sticker_E5_3" style="fill: #8011ee; stroke: black; stroke-width: 0.05;" cx="39.230326589707545" cy="4.027891070566765" r="0.3"/>
        <rect id="sticker_bar_E5_3" style="fill: black; stroke: none;" rx="0.15" ry="0.15" x="39.030376589707544" y="3.952891070566765" width="0.3999" height="0.15" transform="rotate(45 39.230326589707545 4.027891070566765)"/>
    
    
        
        <circle id="sticker_E5_4" style="fill: #bfbf00; stroke: black; stroke-width: 0.05;" cx="37.02849754613857" cy="4.060001077452146" r="0.3"/>
        <rect id="sticker_bar_E5_4" style="fill: black; stroke: none;" rx="0.15" ry="0.15" x="36.828547546138566" y="3.9850010774521456" width="0.3999" height="0.15" transform="rotate(90 37.02849754613857 4.060001077452146)"/>
    
    
        
        <circle id="sticker_E5_5" style="fill: #117fee; stroke: black; stroke-width: 0.05;" cx="34.950247670997314" cy="4.09030888813129" r="0.3"/>
        <rect id="sticker_bar_E5_5" style="fill: black; stroke: none;" rx="0.15" ry="0.15" x="34.75029767099731" y="4.0153088881312895" width="0.3999" height="0.15" transform="rotate(135 34.950247670997314 4.09030888813129)"/>
    
    
        
        <circle id="sticker_E5_6" style="fill: #ff4040; stroke: black; stroke-width: 0.05;" cx="32.98864099851755" cy="4.118915652104953" r="0.3"/>
        <rect id="sticker_bar_E5_6" style="fill: black; stroke: none;" rx="0.15" ry="0.15" x="32.78869099851755" y="4.043915652104952" width="0.3999" height="0.15" transform="rotate(0 32.98864099851755 4.118915652104953)"/>
    
    
        
        <circle id="sticker_E5_7" style="fill: #11ee80; stroke: black; stroke-width: 0.05;" cx="31.137130848778888" cy="4.14591684178864" r="0.3"/>
        <rect id="sticker_bar_E5_7" style="fill: black; stroke: none;" rx="0.15" ry="0.15" x="30.937180848778887" y="4.07091684178864" width="0.3999" height="0.15" transform="rotate(45 31.137130848778888 4.14591684178864)"/>
    
    
        
        <circle id="sticker_E5_8" style="fill: #bf00bf; stroke: black; stroke-width: 0.05;" cx="29.38953797877113" cy="4.17140257114292" r="0.3"/>
        <rect id="sticker_bar_E5_8" style="fill: black; stroke: none;" rx="0.15" ry="0.15" x="29.18958797877113" y="4.09640257114292" width="0.3999" height="0.15" transform="rotate(90 29.38953797877113 4.17140257114292)"/>
    
    
        
        <circle id="sticker_E5_9" style="fill: #7fee11; stroke: black; stroke-width: 0.05;" cx="27.74002995974513" cy="4.1954578964203835" r="0.3"/>
        <rect id="sticker_bar_E5_9" style="fill: black; stroke: none;" rx="0.15" ry="0.15" x="27.54007995974513" y="4.120457896420383" width="0.3999" height="0.15" transform="rotate(135 27.74002995974513 4.1954578964203835)"/>
    
    
        
        <circle id="sticker_E5_10" style="fill: #4040ff; stroke: black; stroke-width: 0.05;" cx="26.18310171202402" cy="4.218163100032983" r="0.3"/>
        <rect id="sticker_bar_E5_10" style="fill: black; stroke: none;" rx="0.15" ry="0.15" x="25.983151712024018" y="4.143163100032983" width="0.3999" height="0.15" transform="rotate(0 26.18310171202402 4.218163100032983)"/>
    
    
        
        <circle id="sticker_E5_11" style="fill: #ee8011; stroke: black; stroke-width: 0.05;" cx="24.713557132311543" cy="4.239593958487124" r="0.3"/>
        <rect id="sticker_bar_E5_11" style="fill: black; stroke: none;" rx="0.15" ry="0.15" x="24.51360713231154" y="4.164593958487123" width="0.3999" height="0.15" transform="rotate(45 24.713557132311543 4.239593958487124)"/>
    
    
        
        <circle id="sticker_E5_12" style="fill: #00bfbf; stroke: black; stroke-width: 0.05;" cx="23.326491752180324" cy="4.259821995280703" r="0.3"/>
        <rect id="sticker_bar_E5_12" style="fill: black; stroke: none;" rx="0.15" ry="0.15" x="23.126541752180323" y="4.184821995280703" width="0.3999" height="0.15" transform="rotate(90 23.326491752180324 4.259821995280703)"/>
    
    
        
        <circle id="sticker_E5_13" style="fill: #ee117f; stroke: black; stroke-width: 0.05;" cx="22.017276369864394" cy="4.278914719606144" r="0.3"/>
        <rect id="sticker_bar_E5_13" style="fill: black; stroke: none;" rx="0.15" ry="0.15" x="21.817326369864393" y="4.203914719606144" width="0.3999" height="0.15" transform="rotate(135 22.017276369864394 4.278914719606144)"/>
    
    
        
        <circle id="sticker_E5_14" style="fill: #40ff40; stroke: black; stroke-width: 0.05;" cx="20.781541600728644" cy="4.29693585165604" r="0.3"/>
        <rect id="sticker_bar_E5_14" style="fill: black; stroke: none;" rx="0.15" ry="0.15" x="20.581591600728643" y="4.22193585165604" width="0.3999" height="0.15" transform="rotate(0 20.781541600728644 4.29693585165604)"/>
    
    
        
        <circle id="sticker_E5_15" style="fill: #8011ee; stroke: black; stroke-width: 0.05;" cx="19.615163294853772" cy="4.313945535283382" r="0.3"/>
        <rect id="sticker_bar_E5_15" style="fill: black; stroke: none;" rx="0.15" ry="0.15" x="19.41521329485377" y="4.238945535283382" width="0.3999" height="0.15" transform="rotate(45 19.615163294853772 4.313945535283382)"/>
    
    
        
        <circle id="sticker_E5_16" style="fill: #bfbf00; stroke: black; stroke-width: 0.05;" cx="18.514248773069284" cy="4.330000538726073" r="0.3"/>
        <rect id="sticker_bar_E5_16" style="fill: black; stroke: none;" rx="0.15" ry="0.15" x="18.314298773069282" y="4.2550005387260725" width="0.3999" height="0.15" transform="rotate(90 18.514248773069284 4.330000538726073)"/>
    
    
        
        <circle id="sticker_E5_17" style="fill: #117fee; stroke: black; stroke-width: 0.05;" cx="17.475123835498657" cy="4.345154444065645" r="0.3"/>
        <rect id="sticker_bar_E5_17" style="fill: black; stroke: none;" rx="0.15" ry="0.15" x="17.275173835498656" y="4.2701544440656445" width="0.3999" height="0.15" transform="rotate(135 17.475123835498657 4.345154444065645)"/>
    
    
    
        
        <circle id="sticker_E5_nut" style="fill: #ee117f; stroke: black; stroke-width: 0.05;" cx="48.2" cy="3.9" r="0.3"/>
        <rect id="sticker_bar_E5_nut" style="fill: black; stroke: none;" rx="0.15" ry="0.15" x="48.00005" y="3.8249999999999997" width="0.3999" height="0.15" transform="rotate(135 48.2 3.9)"/>
    
    

</svg>